<?xml version="1.0" standalone="no"?>
<!DOCTYPE svg PUBLIC "-//W3C//DTD SVG 20010904//EN"
 "http://www.w3.org/TR/2001/REC-SVG-20010904/DTD/svg10.dtd">
<svg version="1.0" xmlns="http://www.w3.org/2000/svg"

 width="326.000000pt" height="60.000000pt" viewBox="0 0 356.000000 60.000000"
 preserveAspectRatio="xMidYMid meet">

<g transform="translate(0.000000,60.000000) scale(0.100000,-0.100000)"
fill="#fff" stroke="none">
<path d="M1656 391 c-24 -46 -27 -49 -75 -55 -61 -8 -65 -24 -17 -66 32 -29
33 -31 25 -82 -5 -29 -5 -56 0 -61 4 -4 29 2 55 14 l46 23 46 -23 c26 -12 51
-18 55 -14 5 5 5 32 0 61 -8 51 -7 53 25 82 48 42 44 58 -17 66 -48 6 -51 9
-75 55 -13 27 -29 49 -34 49 -5 0 -21 -22 -34 -49z"/>
<path d="M235 289 c-4 -6 -3 -15 2 -20 5 -5 233 -8 559 -7 480 3 549 5 549 18
0 13 -69 15 -552 18 -392 1 -554 -1 -558 -9z"/>
<path d="M2035 289 c-4 -6 -3 -15 2 -20 5 -5 233 -8 559 -7 480 3 549 5 549
18 0 13 -69 15 -552 18 -392 1 -554 -1 -558 -9z"/>
</g>
</svg>
